HIERARCHY
ROOT hip
{
	OFFSET 0.000000 0.000000 0.000000 
	CHANNELS 6 Xposition Yposition Zposition Xrotation Zrotation Yrotation
	JOINT abdomen
	{
		OFFSET 0.000000 3.402643 0.000000 
		CHANNELS 3 Xrotation Zrotation Yrotation
		JOINT chest
		{
			OFFSET 0.000000 8.438565 -0.680529 
			CHANNELS 3 Xrotation Zrotation Yrotation
			JOINT neck
			{
				OFFSET 0.000000 10.207942 -0.272212 
				CHANNELS 3 Xrotation Zrotation Yrotation
				JOINT head
				{
					OFFSET 0.000000 3.130431 0.000000 
					CHANNELS 3 Xrotation Zrotation Yrotation
					End Site
					{
						OFFSET 0.000000 3.130435 0.000000 
					}
				}
			}
			JOINT lCollar
			{
				OFFSET 3.470700 6.669187 -0.816635 
				CHANNELS 3 Yrotation Zrotation Xrotation
				JOINT lShldr
				{
					OFFSET 3.198488 0.000000 0.000000 
					CHANNELS 3 Zrotation Yrotation Xrotation
					JOINT lForeArm
					{
						OFFSET 10.139888 0.000000 0.000000 
						CHANNELS 3 Yrotation Zrotation Xrotation
						JOINT lHand
						{
							OFFSET 8.370511 0.000000 0.000000 
							CHANNELS 3 Zrotation Yrotation Xrotation
							End Site
							{
								OFFSET 4.083176 0.000000 0.000000 
							}
						}
					}
				}
			}
			JOINT rCollar
			{
				OFFSET -3.470700 6.669187 -0.816635 
				CHANNELS 3 Yrotation Zrotation Xrotation
				JOINT rShldr
				{
					OFFSET -3.198488 0.000000 0.000000 
					CHANNELS 3 Zrotation Yrotation Xrotation
					JOINT rForeArm
					{
						OFFSET -10.139888 0.000000 0.000000 
						CHANNELS 3 Yrotation Zrotation Xrotation
						JOINT rHand
						{
							OFFSET -8.370511 0.000000 0.000000 
							CHANNELS 3 Zrotation Yrotation Xrotation
							End Site
							{
								OFFSET -4.083176 0.000000 0.000000 
							}
						}
					}
				}
			}
		}
	}
	JOINT lThigh
	{
		OFFSET 5.308129 -1.633274 1.361059 
		CHANNELS 3 Xrotation Zrotation Yrotation
		JOINT lShin
		{
			OFFSET -2.041588 -20.007561 0.000000 
			CHANNELS 3 Xrotation Zrotation Yrotation
			JOINT lFoot
			{
				OFFSET 0.000000 -19.190928 -1.224953 
				CHANNELS 3 Xrotation Yrotation Zrotation
				End Site
				{
					OFFSET 0.000000 -2.449906 4.627600 
				}
			}
		}
	}
	JOINT rThigh
	{
		OFFSET -5.308129 -1.633274 1.361059 
		CHANNELS 3 Xrotation Zrotation Yrotation
		JOINT rShin
		{
			OFFSET 2.041588 -20.007561 0.000000 
			CHANNELS 3 Xrotation Zrotation Yrotation
			JOINT rFoot
			{
				OFFSET 0.000000 -19.190928 -1.224953 
				CHANNELS 3 Xrotation Yrotation Zrotation
				End Site
				{
					OFFSET 0.000000 -2.449906 4.627600 
				}
			}
		}
	}
}
MOTION
Frames: 13
Frame Time: 0.033333
-0.003463 18.248730 -0.001574 2.812500 3.857422 126.055351 27.460938 -1.181641 -0.761920 -14.277343 -2.646484 -1.523888 51.064453 8.115234 2.472081 -55.000000 -1.777344 3.290712 6.298828 30.000000 0.668945 -108.164063 -12.324219 -0.712891 -95.185547 0.273438 -2.880906 35.371090 37.011715 11.679686 0.654297 -30.000000 4.921875 106.191406 6.201172 -8.486329 102.509766 -1.162109 -3.075974 -44.560543 -32.529297 27.445919 -85.819405 8.398646 8.294849 52.429268 -3.523165 -4.303088 0.518225 -11.096755 0.259704 -84.953865 -8.710524 -2.433834 47.671387 3.388309 3.797642 11.043282 4.662072 0.665805 
-0.006184 18.236345 -0.002870 2.812500 3.857422 126.055351 27.460936 -1.240234 -0.595703 -14.101563 -2.646484 -1.523888 51.064453 8.115234 2.472081 -55.332031 -1.572266 3.115234 6.298828 30.000000 0.668945 -108.164063 -12.324219 -0.712891 -95.185547 0.273438 -2.880906 35.175785 37.011719 11.675800 0.839844 -30.000000 4.951172 106.015625 6.210938 -8.475505 102.333984 -1.152344 -3.075975 -44.560543 -32.705078 27.543552 -85.819405 8.398646 8.294849 52.633385 -3.679499 -4.229400 0.458969 -11.130216 0.250052 -84.977814 -8.701473 -2.255763 47.671505 3.372853 3.810532 11.212773 4.621710 0.683651 
-0.009280 18.210426 -0.004305 2.812500 4.033203 126.065140 27.460938 -1.396484 -0.674066 -14.101563 -2.822266 -1.542969 51.064453 8.115234 2.472081 -55.673828 -1.357422 3.115247 6.308594 30.000000 0.644531 -108.164063 -12.324219 -0.712891 -95.185547 0.273438 -2.880906 35.195313 36.843494 11.604893 0.839844 -30.000000 4.951172 105.839844 6.230468 -8.475503 102.333984 -1.152344 -3.075975 -44.306641 -32.871090 27.431641 -85.819405 8.398648 8.294847 52.605873 -3.513447 -4.313272 0.479645 -11.159302 0.002543 -84.977814 -8.701473 -2.255763 47.671505 3.372850 3.810530 11.373684 4.606881 0.858582 
-0.013859 18.200472 -0.006283 2.812500 4.033203 126.065140 27.460938 -1.396484 -0.674066 -14.101563 -2.822266 -1.542969 51.064453 8.115234 2.472081 -56.181641 -1.152344 2.939257 6.513672 30.000000 0.600586 -108.164063 -12.324219 -0.712891 -95.185547 0.273438 -2.880906 34.980469 37.011719 11.656271 0.839844 -30.000000 4.951172 105.654297 6.250000 -8.807531 102.353516 -0.976563 -3.076172 -44.042969 -33.261715 27.392578 -85.819405 8.398648 8.294847 52.605873 -3.513447 -4.313272 0.479647 -11.159302 0.002543 -84.977814 -8.701472 -2.255763 47.671505 3.372849 3.810530 11.373684 4.606881 0.858582 
-0.021039 18.154760 -0.009211 2.812500 4.033203 126.065140 27.460938 -1.396484 -0.674066 -14.101563 -2.998047 -1.563025 51.064453 8.115234 2.472081 -56.513672 -0.937500 2.919762 6.611328 29.999516 0.385813 -107.978516 -12.353516 -0.558728 -95.185547 0.273438 -2.880906 34.785152 37.011719 11.621094 0.839844 -30.000000 4.951172 105.478516 6.259767 -8.797761 102.353516 -0.976563 -3.076172 -43.691410 -33.740238 27.636721 -85.819405 8.398648 8.294847 52.605873 -3.513447 -4.313272 0.668423 -10.952842 0.358833 -84.977814 -8.701472 -2.255763 47.671505 3.372849 3.810530 11.373684 4.606881 0.858582 
-0.030554 18.142962 -0.013331 2.812500 4.033203 126.065140 27.460938 -1.396484 -0.674066 -13.925780 -2.988281 -1.572775 51.064453 8.115234 2.472081 -56.855473 -0.742188 2.734375 6.796875 30.000000 0.366211 -107.988281 -12.207030 -0.371094 -95.185547 0.273438 -2.880906 34.697266 36.992188 11.826172 0.839844 -30.000000 4.951172 105.107414 6.474609 -8.808595 102.353516 -0.986328 -3.076172 -43.056641 -34.111328 27.587893 -85.819405 8.398650 8.294847 52.605869 -3.513445 -4.313272 0.593931 -11.096446 0.276125 -84.953865 -8.710524 -2.433834 47.671387 3.388306 3.797641 11.219262 4.651972 0.665528 
-0.041207 18.126648 -0.018388 2.978516 4.033203 126.074913 27.460938 -1.396484 -0.674066 -13.925781 -3.154297 -1.582031 51.064453 8.115234 2.472081 -57.011719 -0.546875 2.539067 7.011719 30.000000 0.302734 -108.164063 -12.158203 0.009766 -95.195313 0.087891 -3.037124 35.087891 36.904297 11.822270 0.839844 -30.000000 4.951172 104.941406 6.474609 -8.974610 102.353516 -0.966797 -3.085938 -42.587891 -34.619137 27.611639 -85.819405 8.398648 8.294847 52.605873 -3.513446 -4.313272 0.691252 -11.102201 0.262528 -84.953865 -8.710524 -2.433832 47.671387 3.388308 3.797642 11.427750 4.522352 0.804553 
-0.052700 18.106165 -0.024058 2.978516 4.033203 126.074913 27.470703 -1.552734 -0.761983 -14.101563 -3.339844 -1.592366 51.064453 8.115234 2.472081 -57.333988 -0.175781 2.324219 6.816407 30.000000 0.336914 -107.812500 -12.031251 0.009766 -95.185547 0.273438 -2.880906 34.863285 37.187500 11.910200 0.654297 -30.000000 4.921875 104.941406 6.298829 -9.121094 102.353516 -0.976563 -3.076172 -42.207031 -34.814453 27.679972 -85.819405 8.398648 8.294848 52.605873 -3.513446 -4.313272 0.691249 -11.102201 0.262528 -85.163338 -8.730579 -2.239516 47.679783 3.394949 3.830200 11.390493 4.622958 0.856097 
-0.064759 18.071106 -0.030006 2.978516 4.033203 126.074913 27.470703 -1.552734 -0.761983 -14.101563 -3.339844 -1.592366 51.064453 8.115234 2.472081 -57.490234 0.019531 2.128906 6.826172 30.000000 0.307617 -108.173828 -12.011719 0.369063 -95.009766 0.263672 -2.880857 34.882813 37.001953 11.835938 0.654297 -30.000000 4.921875 104.765625 6.318359 -9.120017 102.353516 -0.976563 -3.076172 -42.207031 -35.361328 27.562708 -85.814941 8.211821 8.299142 52.576984 -3.487975 -4.318169 0.714100 -10.933888 0.350039 -85.142593 -8.691087 -2.429840 47.671871 3.359179 3.814498 11.585709 4.469124 1.000312 
-0.077087 18.045177 -0.035907 2.978516 4.033203 126.250694 27.480471 -1.767578 -0.683895 -14.277344 -3.349610 -1.592367 51.064453 8.115234 2.472081 -57.646488 0.205078 1.933594 6.533203 30.000000 0.576172 -108.183594 -11.826173 0.203077 -94.843750 -0.097656 -3.164046 35.761719 36.894527 12.095706 0.556641 -30.000000 4.707032 104.775391 6.181641 -8.750000 102.158203 -1.142578 -3.085743 -41.914063 -35.888672 27.617188 -85.814941 8.211825 8.299137 52.576984 -3.487976 -4.318171 0.707645 -11.073736 0.275375 -85.142593 -8.691081 -2.429845 47.836494 3.339532 3.625738 11.596351 4.657445 0.701749 
-0.089404 18.014980 -0.041427 2.978516 4.033203 126.250694 27.480471 -1.767578 -0.683895 -14.277343 -3.173828 -1.748588 51.064453 8.115234 2.472081 -57.822266 0.214844 1.933631 6.513672 30.000000 0.600586 -108.183594 -11.650392 0.593731 -94.482422 0.244141 -2.880857 35.380859 36.699219 11.123049 0.654297 -30.000000 4.931641 104.599609 6.201171 -8.749999 101.982422 -1.142578 -3.085742 -41.386723 -36.416016 27.626951 -85.814941 8.211824 8.299137 52.576984 -3.487978 -4.318171 0.707644 -11.073736 0.275375 -85.142593 -8.691083 -2.429843 47.836494 3.339533 3.625739 11.596351 4.657445 0.701749 
-0.101422 17.984081 -0.046228 2.978516 4.199219 126.250008 27.490232 -1.972656 -0.595703 -14.453126 -3.173828 -1.904297 51.064453 8.115234 2.472081 -57.988277 0.410156 1.738351 6.611328 29.999516 0.385813 -108.193359 -11.494141 0.779306 -94.130859 0.234375 -2.871094 35.195313 36.550529 10.227974 0.654297 -30.000000 4.931641 104.599609 6.035156 -8.730468 101.806641 -1.132813 -3.085938 -41.357422 -36.904297 27.904293 -85.810562 8.027719 8.440817 52.771088 -3.326052 -4.229099 0.707707 -11.231441 0.195238 -85.149536 -8.876527 -2.259235 47.836494 3.339533 3.625740 11.431551 4.513592 0.806631 
-0.112851 17.947981 -0.050014 2.978516 4.199219 126.250008 27.314455 -2.197266 -0.508187 -14.628906 -2.998047 -2.061058 51.064453 8.115234 2.472081 -58.144531 0.595703 1.533203 6.601563 30.000000 0.405273 -108.193359 -11.298828 1.160196 -93.779297 0.214844 -2.871129 35.576176 36.240231 9.292882 0.654297 -30.000000 4.921875 104.423836 6.054688 -8.729438 101.630859 -1.123047 -3.085938 -40.927734 -37.246094 28.031199 -85.811119 8.045013 8.268686 52.771255 -3.322157 -4.227232 0.599475 -11.275494 0.199555 -85.145416 -8.877194 -2.445825 47.834953 3.355761 3.651885 11.576903 4.619921 0.873465 
